<?xml version="1.0" encoding="UTF-8"?>
<svg xmlns="http://www.w3.org/2000/svg" xmlns:xlink="http://www.w3.org/1999/xlink" viewBox="0 0 246.79 66.93">
  <defs>
    <style>
      .cls-1 {
        fill: url(#linear-gradient-2);
      }

      .cls-2 {
        fill: #fff;
      }

      .cls-3 {
        fill: url(#radial-gradient-2);
      }

      .cls-3, .cls-4, .cls-5 {
        mix-blend-mode: multiply;
        opacity: .8;
      }

      .cls-4 {
        fill: url(#radial-gradient);
      }

      .cls-6 {
        isolation: isolate;
      }

      .cls-5 {
        fill: url(#radial-gradient-3);
      }

      .cls-7 {
        fill: url(#Degradado_sin_nombre_3);
      }

      .cls-8 {
        fill: url(#linear-gradient);
      }
    </style>
    <radialGradient id="radial-gradient" cx="217.1" cy="37.24" fx="217.1" fy="37.24" r="29.68" gradientUnits="userSpaceOnUse">
      <stop offset="0" stop-color="#000057"/>
      <stop offset=".39" stop-color="#7474a4" stop-opacity=".54"/>
      <stop offset=".79" stop-color="#d8d8e5" stop-opacity=".15"/>
      <stop offset="1" stop-color="#fff" stop-opacity="0"/>
    </radialGradient>
    <linearGradient id="Degradado_sin_nombre_3" data-name="Degradado sin nombre 3" x1="192.28" y1="6.98" x2="225.98" y2="40.68" gradientUnits="userSpaceOnUse">
      <stop offset="0" stop-color="#ffe185"/>
      <stop offset=".21" stop-color="#ffbb36"/>
      <stop offset=".38" stop-color="#ff5176"/>
      <stop offset=".52" stop-color="#f63395"/>
      <stop offset=".74" stop-color="#a436d2"/>
      <stop offset="1" stop-color="#5f4eed"/>
    </linearGradient>
    <radialGradient id="radial-gradient-2" cx="31.96" fx="31.96" xlink:href="#radial-gradient"/>
    <linearGradient id="linear-gradient" x1="6.98" y1="6.98" x2="40.68" y2="40.68" gradientUnits="userSpaceOnUse">
      <stop offset="0" stop-color="#1677f1"/>
      <stop offset=".18" stop-color="#176ee9"/>
      <stop offset=".46" stop-color="#1d55d3"/>
      <stop offset=".82" stop-color="#252eb0"/>
      <stop offset="1" stop-color="#2b189c"/>
    </linearGradient>
    <radialGradient id="radial-gradient-3" cx="124.53" fx="124.53" r="29.68" xlink:href="#radial-gradient"/>
    <linearGradient id="linear-gradient-2" x1="99.63" y1="6.98" x2="133.33" y2="40.68" gradientUnits="userSpaceOnUse">
      <stop offset="0" stop-color="#23004a"/>
      <stop offset=".96" stop-color="#010003"/>
      <stop offset="1" stop-color="#000"/>
    </linearGradient>
  </defs>
  <g class="cls-6">
    <g id="Calque_2" data-name="Calque 2">
      <g id="ELEMENTS">
        <g>
          <circle class="cls-4" cx="217.1" cy="37.24" r="29.68"/>
          <g>
            <circle class="cls-7" cx="209.13" cy="23.83" r="23.83"/>
            <g>
              <path class="cls-2" d="M215.7,15.86c-.8,0-1.45.65-1.45,1.45s.65,1.45,1.45,1.45,1.45-.65,1.45-1.45-.65-1.45-1.45-1.45Z"/>
              <path class="cls-2" d="M209.23,17.72c-3.37,0-6.11,2.74-6.11,6.11s2.74,6.11,6.11,6.11,6.11-2.74,6.11-6.11-2.74-6.11-6.11-6.11ZM209.23,27.74c-2.16,0-3.91-1.76-3.91-3.91s1.76-3.91,3.91-3.91,3.91,1.76,3.91,3.91-1.76,3.91-3.91,3.91Z"/>
              <path class="cls-2" d="M214.08,36.23h-9.9c-4.11,0-7.45-3.34-7.45-7.45v-9.9c0-4.11,3.34-7.45,7.45-7.45h9.9c4.11,0,7.45,3.34,7.45,7.45v9.9c0,4.11-3.34,7.45-7.45,7.45ZM204.18,13.76c-2.82,0-5.12,2.3-5.12,5.12v9.9c0,2.82,2.3,5.12,5.12,5.12h9.9c2.82,0,5.12-2.3,5.12-5.12v-9.9c0-2.82-2.3-5.12-5.12-5.12h-9.9Z"/>
            </g>
          </g>
        </g>
        <g>
          <circle class="cls-3" cx="31.96" cy="37.24" r="29.68"/>
          <g>
            <circle class="cls-8" cx="23.83" cy="23.83" r="23.83"/>
            <path class="cls-2" d="M26.47,39.01v-13.28h4.43l.84-5.49h-5.27v-3.57c0-1.5.74-2.97,3.1-2.97h2.4v-4.68s-2.18-.37-4.25-.37c-4.34,0-7.18,2.63-7.18,7.39v4.19h-4.83v5.49h4.83v13.28h5.94Z"/>
          </g>
        </g>
        <g>
          <circle class="cls-5" cx="124.53" cy="37.24" r="29.68"/>
          <g>
            <circle class="cls-1" cx="116.48" cy="23.83" r="23.83"/>
            <path class="cls-2" d="M118.5,22.16l7.9-9.19h-1.87l-6.86,7.98-5.48-7.98h-6.32l8.29,12.06-8.29,9.63h1.87l7.25-8.42,5.79,8.42h6.32l-8.6-12.51h0ZM115.94,25.14l-.84-1.2-6.68-9.56h2.88l5.39,7.71.84,1.2,7.01,10.03h-2.88l-5.72-8.18h0Z"/>
          </g>
        </g>
      </g>
    </g>
  </g>
</svg>